<?xml version="1.0" encoding="UTF-8" standalone="no"?>
<svg
   xmlns:dc="http://purl.org/dc/elements/1.1/"
   xmlns:cc="http://creativecommons.org/ns#"
   xmlns:rdf="http://www.w3.org/1999/02/22-rdf-syntax-ns#"
   xmlns:svg="http://www.w3.org/2000/svg"
   xmlns="http://www.w3.org/2000/svg"
   xmlns:sodipodi="http://sodipodi.sourceforge.net/DTD/sodipodi-0.dtd"
   xmlns:inkscape="http://www.inkscape.org/namespaces/inkscape"
   enable-background="new 0 0 52 52"
   viewBox="0 0 52.64867 48.57412"
   version="1.1"
   id="svg1744"
   sodipodi:docname="friends.svg"
   inkscape:version="1.0.1 (3bc2e813f5, 2020-09-07)"
   width="52.64867"
   height="48.57412">
  <metadata
     id="metadata1750">
    <rdf:RDF>
      <cc:Work
         rdf:about="">
        <dc:format>image/svg+xml</dc:format>
        <dc:type
           rdf:resource="http://purl.org/dc/dcmitype/StillImage" />
        <dc:title></dc:title>
      </cc:Work>
    </rdf:RDF>
  </metadata>
  <defs
     id="defs1748" />
  <sodipodi:namedview
     pagecolor="#ffffff"
     bordercolor="#666666"
     borderopacity="1"
     objecttolerance="10"
     gridtolerance="10"
     guidetolerance="10"
     inkscape:pageopacity="0"
     inkscape:pageshadow="2"
     inkscape:window-width="1920"
     inkscape:window-height="1017"
     id="namedview1746"
     showgrid="false"
     showborder="false"
     inkscape:zoom="16.346154"
     inkscape:cx="29.507149"
     inkscape:cy="24.220683"
     inkscape:window-x="-8"
     inkscape:window-y="-8"
     inkscape:window-maximized="1"
     inkscape:current-layer="layer1"
     fit-margin-top="0"
     fit-margin-left="0"
     fit-margin-right="0"
     fit-margin-bottom="0" />
  <g
     inkscape:groupmode="layer"
     id="layer1"
     inkscape:label="Layer 1"
     transform="translate(-1.3458805,0.12235451)">
    <ellipse
       style="fill:#ff5e5b;fill-opacity:1;stroke-width:0.772407"
       id="path2332"
       cx="27.670216"
       cy="24.164705"
       rx="23.326689"
       ry="21.717648" />
  </g>
  <g
     inkscape:groupmode="layer"
     id="layer2"
     inkscape:label="Layer 2"
     transform="translate(-1.3458805,0.12235451)">
    <rect
       width="9.9386959"
       height="12.767332"
       x="29.173248"
       y="16.541834"
       fill="#3e5075"
       id="rect1710"
       style="stroke-width:0.674879" />
    <path
       fill="#e5a35a"
       d="m 31.718874,30.752625 h 4.847063 l 7e-6,-6.83349 c 0,-2.977581 2.548281,-3.749722 2.548281,-7.811184 0,-3.23945 -2.224708,-5.870166 -4.97511,-5.870166 -4.278528,0 -6.725625,5.976742 -3.461171,10.572408 1.699355,2.392339 0.778725,4.019379 1.04093,9.942432 z"
       id="path1712"
       style="stroke-width:0.674879" />
    <path
       fill="#ffb564"
       d="m 39.11207,16.10898 c 0,2.968569 -1.545384,4.58985 -1.985072,5.511252 -1.294387,2.653983 -4.672118,2.657447 -5.968569,0 -0.291324,-0.610874 -3.003069,-3.867355 -1.587937,-7.814362 2.135129,-5.8934669 9.541578,-3.9918092 9.541578,2.30311 z"
       id="path1714"
       style="stroke-width:0.674879" />
    <path
       d="m 39.114218,16.10737 c 0,2.95617 -1.525849,4.549336 -1.985298,5.513898 -1.06896,2.171887 -3.599177,2.635664 -5.20074,1.063608 2.493983,0.446661 3.30608,-1.656017 4.048622,-2.749986 2.272881,-3.195331 1.900296,-7.441691 -0.61833,-9.516358 2.251962,0.667406 3.755746,3.070905 3.755746,5.688838 z"
       opacity="0.05"
       id="path1716"
       style="stroke-width:0.674879" />
    <path
       fill="#ff5975"
       d="m 42.872926,27.815782 v 5.121291 H 25.41205 v -5.121291 c 0,-1.278826 0.771233,-2.428487 1.912956,-2.787619 1.345658,-0.423282 2.691311,-0.720032 4.036969,-0.890186 0.189877,-0.02401 0.372534,0.09101 0.449445,0.279172 l 1.932888,4.728643 c 0.151121,0.369704 0.638944,0.36997 0.79041,4.28e-4 2.110559,-5.149282 1.95408,-5.063116 2.387786,-5.008285 1.345834,0.170147 2.691558,0.466918 4.037412,0.890243 1.141743,0.359117 1.91301,1.508764 1.91301,2.787604 z"
       id="path1718"
       style="stroke-width:0.674879" />
    <path
       d="m 42.869964,27.813892 v 5.122054 H 25.412595 v -1.882282 h 12.05481 c 1.939689,0 3.508316,-1.686336 3.508316,-3.764565 v -1.350478 c 0,-0.328853 -0.05197,-0.650745 -0.14318,-0.95163 1.331339,0.40891 2.037423,1.584854 2.037423,2.826901 z"
       opacity="0.05"
       id="path1720"
       style="stroke-width:0.674879" />
    <g
       id="g1724"
       transform="matrix(0.65090687,0,0,0.69973318,10.327542,5.7239596)">
      <path
         fill="#3e5075"
         d="m 43.13746,10.52738 c -4.16509,0.53232 -3.55405,0.74376 -7.88516,0.8859 -5.31411,0.15853 -5.13866,0.17257 -5.68901,0.13671 1.16722,-2.997 3.86982,-5.10013 7.01399,-5.10013 2.78514,-1e-5 5.21897,1.63923 6.56018,4.07752 z"
         id="path1722" />
    </g>
    <g
       id="g1742"
       transform="matrix(0.65488886,0,0,0.68411035,10.32356,6.4512074)">
      <path
         fill="#e5a35a"
         d="m 11.68936,32.6625 10e-6,9.76585 H 19.136 l 10e-6,-9.76585 c 0,-1.62195 0.61483,-3.15396 1.5992,-4.44304 4.96237,-6.49849 1.33338,-15.1092 -5.32758,-15.1092 -4.21537,0 -7.63324,3.7596 -7.63324,8.38915 0,2.35364 0.88553,4.84706 2.31577,6.72005 0.98437,1.28908 1.5992,2.82109 1.5992,4.44304 z"
         id="path1726" />
      <path
         fill="#ffb564"
         d="m 20.7355,28.21911 c -0.28003,0.37 -0.53003,0.75 -0.73999,1.15002 -0.90015,1.72998 -2.63013,2.85998 -4.58008,2.85998 -1.94995,0 -3.67993,-1.13 -4.59009,-2.85998 -0.20996,-0.40002 -0.45996,-0.78003 -0.73999,-1.15002 -1.42993,-1.87 -2.30994,-4.37 -2.30994,-6.72003 0,-0.70996 0.07996,-1.39996 0.2301,-2.04999 0.82983,-3.64001 3.82983,-6.33997 7.3999,-6.33997 1.84009,0 3.52002,0.70996 4.83008,1.88 v 0.0099 c 3.79481,3.37573 3.53598,9.24974 0.50001,13.22004 z"
         id="path1728" />
      <path
         d="m 20.7355,28.21911 c -0.28003,0.37 -0.53003,0.75 -0.73999,1.15002 -0.90015,1.72998 -2.63013,2.85998 -4.58008,2.85998 -1.47998,0 -2.83008,-0.65002 -3.79004,-1.72003 0.40002,0.11005 0.83008,0.16003 1.26001,0.16003 1.93994,0 3.68005,-1.13 4.58008,-2.86005 0.20996,-0.39996 0.45996,-0.77997 0.73999,-1.14996 1.42993,-1.87 2.30994,-4.37 2.30994,-6.72003 0,-2.56995 -1.04993,-4.87 -2.69995,-6.39996 5.28888,1.91375 7.11632,9.19231 2.92004,14.68 z"
         opacity="0.06"
         id="path1730" />
      <path
         fill="#8e9aff"
         d="m 28.82554,38.23127 v 7.31892 H 2.00008 v -7.31892 c 0,-1.82759 1.18486,-3.47059 2.93891,-3.98383 2.06736,-0.60492 4.13471,-1.02901 6.20207,-1.27218 0.29171,-0.03431 0.57233,0.13007 0.69049,0.39897 l 2.96953,6.75778 c 0.23217,0.52835 0.98162,0.52873 1.21432,6.1e-4 l 2.97818,-6.75906 c 0.11833,-0.26856 0.39876,-0.43263 0.69022,-0.39836 2.06764,0.24316 4.13509,0.66729 6.20276,1.27226 1.75407,0.51321 2.93898,2.15619 2.93898,3.98381 z"
         id="path1732" />
      <path
         d="m 28.82554,38.23018 v 7.32001 H 2.00547 v -2.69 h 18.52002 c 2.97998,0 5.38989,-2.40997 5.38989,-5.38 V 35.5502 c 0,-0.46997 -0.07983,-0.92999 -0.21997,-1.35999 0.07007,0.02002 0.13013,0.03998 0.20007,0.06 1.75001,0.51 2.93006,2.15996 2.93006,3.97997 z"
         opacity="0.05"
         id="path1734" />
      <g
         id="g1738">
        <path
           fill="#3e5075"
           d="m 20.2355,14.98913 v 0.0099 c 0,0 -6.81006,4.88 -12.22998,4.45001 0.82983,-3.64001 3.82983,-6.33997 7.3999,-6.33997 1.84009,0 3.52002,0.70996 4.83008,1.88001 z"
           id="path1736" />
      </g>
      <path
         fill="#293c66"
         d="m 47.3418,26.62793 c -0.70313,-0.20551 -1.4104,-0.38379 -2.11914,-0.54956 3e-5,-0.11282 0.0029,-8.04384 0.0029,-11.23853 0,-5.16748 -3.89993,-9.36595 -8.60718,-9.38715 -0.01392,-6e-5 -0.02734,-0.00299 -0.04126,-0.00299 -0.01636,0 -0.0321,0.00378 -0.04858,0.00391 -4.31396,0.02874 -7.75814,3.4502 -8.44519,7.79187 -3.7e-4,0.0021 -6.1e-4,0.0043 -8.5e-4,0.0065 -0.24557,1.55806 -0.13267,3.53933 -0.12939,12.82568 -0.70898,0.16583 -1.41699,0.34436 -2.12109,0.55029 -4.11873,1.20573 -3.62765,5.61982 -3.65723,5.71991 -0.66162,-0.12109 -1.32239,-0.22626 -1.9812,-0.31091 0.40059,-3.47728 3.96353,-4.80422 3.85522,-10.61835 -0.02856,-1.53339 -0.38281,-3.0459 -1.07422,-4.44397 -4.15768,-8.40387 -16.2002,-5.23851 -16.2002,4.5249 0,5.67796 3.46662,7.14459 3.85815,10.53705 -1.9856,0.25531 -3.99292,0.67133 -5.97339,1.25104 C 2.50488,33.91797 1,35.95068 1,38.23145 v 7.31885 c 0,0.55225 0.44727,1 1,1 h 26.8252 c 0.55273,0 1,-0.44775 1,-1 V 39.89063 H 50 c 0.55273,0 1,-0.44775 1,-1 v -7.31885 c 0,-2.28076 -1.50391,-4.31348 -3.6582,-4.94385 z m -5.99512,-1.25275 c 0.14197,-1.25165 0.70544,-2.18652 1.40869,-3.28033 0.16272,-0.21674 0.31885,-0.44019 0.46729,-0.67017 v 4.24127 C 42.59814,25.55389 41.9729,25.45569 41.34668,25.37518 Z M 41.39282,9.75867 c -4.91171,0.73829 -4.31021,0.60121 -10.19067,0.7782 0.92541,-1.0534 2.18083,-3.08618 5.37988,-3.08618 1.75479,-10e-6 3.4857,0.76082 4.81079,2.30798 z M 30.2959,12.56262 c 7.14242,-0.14612 7.35236,-0.27603 12.25415,-0.94788 0.42834,0.97614 0.67554,2.06787 0.67554,3.2251 0,3.24071 -1.52552,5.10109 -2.63672,6.9165 -0.7666,1.25391 -1.7207,2.81445 -4.00195,2.81445 -0.04492,0 -0.08984,0.0029 -0.13379,0.0088 -2.74049,-0.06427 -3.52713,-2.49109 -4.39355,-3.62646 0,0 -7.3e-4,-0.0011 -0.0012,-0.0016 -1.69983,-2.51984 -2.65957,-5.26415 -1.76246,-8.38885 z m 3.57275,13.66486 c -0.0044,-0.10779 -0.01111,-0.21283 -0.01733,-0.31836 1.27002,0.6377 2.4187,0.67096 2.6272,0.67096 0.06152,0 0.12012,-0.0034 0.17578,-0.0098 1.07031,-0.01013 1.93298,-0.2793 2.66138,-0.66327 -4.9e-4,0.03296 -0.0051,0.06256 -0.0051,0.09589 v 0.13818 c 0.0249,-0.0069 0.05103,-0.009 0.07617,-0.01532 -0.47107,0.80461 -1.04435,2.23131 -2.80371,6.24286 L 33.92188,26.3125 c -0.0138,-0.03131 -0.03785,-0.05487 -0.05323,-0.08502 z M 29.95313,21.3924 c 0.03784,0.05774 0.07617,0.11517 0.11499,0.17249 0.90434,1.39949 1.51913,2.04937 1.73608,3.81293 -0.61548,0.07916 -1.23267,0.17615 -1.85107,0.28711 z M 12.68481,32.55719 c 1.71061,0.87413 3.65414,0.92059 5.45557,1.8e-4 -0.0061,0.44062 -0.0042,0.28838 -0.0046,0.32135 -0.18763,0.36031 -1.97703,4.45857 -2.72656,6.15106 -1.07603,-2.4356 -2.51685,-5.7594 -2.71973,-6.15045 -4.7e-4,-0.03305 0.0015,0.11957 -0.0046,-0.32214 z m 5.80542,-17.61041 c -1.86646,1.15668 -5.67163,3.24957 -9.11743,3.50311 1.02859,-2.50786 3.3161,-4.30846 5.96997,-4.33588 0.02173,-2.4e-4 0.04272,-0.0037 0.06445,-0.0037 1.10694,0 2.19738,0.31834 3.08301,0.83643 z m -9.71582,6.55273 c 0,-0.35059 0.02966,-0.69287 0.07227,-1.03058 4.51709,-0.06384 9.48828,-3.01935 11.28149,-4.19049 1.29764,1.47884 1.91582,3.45524 1.91467,5.39124 -0.0011,1.86261 -0.57593,3.94373 -2.10242,5.94263 -0.81632,1.06918 -1.66842,3.61816 -4.52734,3.61816 -2.86182,0 -3.66962,-2.49363 -4.52832,-3.61816 C 9.56348,25.88184 8.77441,23.59668 8.77441,21.49951 Z M 27.8252,44.55029 H 3 V 38.23144 C 3,36.833 3.91309,35.58984 5.2207,35.20703 7.15527,34.64111 9.11425,34.23291 11.01269,33.9956 l 2.87305,6.53906 c 0.26563,0.60352 0.86328,0.99365 1.52246,0.99365 0.6582,0 1.25586,-0.38916 1.52246,-0.99219 l 2.87988,-6.53809 c 1.5812,0.19704 3.78489,0.62098 5.79492,1.20947 1.30664,0.38232 2.21973,1.62549 2.21973,3.02393 v 6.31886 z M 49,37.89063 H 29.79736 C 29.65478,35.75208 28.21228,33.88605 26.16797,33.2876 25.50598,33.094 24.84082,32.92438 24.17481,32.76624 v -1.19446 c 0,-1.39844 0.91309,-2.6416 2.21973,-3.02393 1.93262,-0.56592 3.89258,-0.97363 5.79199,-1.21143 l 2.87402,6.53906 c 0.26563,0.60352 0.86328,0.99365 1.52246,0.99365 0.65918,0 1.25586,-0.39014 1.52148,-0.99268 1.45423,-3.3011 2.48861,-5.77015 2.88574,-6.53711 1.92285,0.24023 3.86914,0.64648 5.79004,1.2085 C 48.08691,28.93018 49,30.17334 49,31.57178 Z"
         id="path1740" />
    </g>
  </g>
</svg>
