<?xml version="1.0" encoding="UTF-8" standalone="no"?>
<svg
   xmlns:dc="http://purl.org/dc/elements/1.1/"
   xmlns:cc="http://creativecommons.org/ns#"
   xmlns:rdf="http://www.w3.org/1999/02/22-rdf-syntax-ns#"
   xmlns:svg="http://www.w3.org/2000/svg"
   xmlns="http://www.w3.org/2000/svg"
   xmlns:sodipodi="http://sodipodi.sourceforge.net/DTD/sodipodi-0.dtd"
   xmlns:inkscape="http://www.inkscape.org/namespaces/inkscape"
   version="1.1"
   id="Capa_1"
   x="0px"
   y="0px"
   viewBox="0 0 667.85486 657.63263"
   xml:space="preserve"
   sodipodi:docname="privacy_unlock.svg"
   inkscape:version="1.0.1 (3bc2e813f5, 2020-09-07)"
   width="667.85486"
   height="657.63263"><metadata
   id="metadata43"><rdf:RDF><cc:Work
       rdf:about=""><dc:format>image/svg+xml</dc:format><dc:type
         rdf:resource="http://purl.org/dc/dcmitype/StillImage" /><dc:title></dc:title></cc:Work></rdf:RDF></metadata><defs
   id="defs41" /><sodipodi:namedview
   pagecolor="#ffffff"
   bordercolor="#666666"
   borderopacity="1"
   objecttolerance="10"
   gridtolerance="10"
   guidetolerance="10"
   inkscape:pageopacity="0"
   inkscape:pageshadow="2"
   inkscape:window-width="1920"
   inkscape:window-height="1017"
   id="namedview39"
   showgrid="false"
   showborder="false"
   inkscape:zoom="1.1739077"
   inkscape:cx="184.88652"
   inkscape:cy="336.37079"
   inkscape:window-x="-8"
   inkscape:window-y="-8"
   inkscape:window-maximized="1"
   inkscape:current-layer="layer3"
   inkscape:object-nodes="true"
   inkscape:document-rotation="0"
   fit-margin-top="0"
   fit-margin-left="0"
   fit-margin-right="0"
   fit-margin-bottom="0" />



<g
   id="g8"
   transform="translate(333.07558,50.259491)">
</g>
<g
   id="g10"
   transform="translate(333.07558,50.259491)">
</g>
<g
   id="g12"
   transform="translate(333.07558,50.259491)">
</g>
<g
   id="g14"
   transform="translate(333.07558,50.259491)">
</g>
<g
   id="g16"
   transform="translate(333.07558,50.259491)">
</g>
<g
   id="g18"
   transform="translate(333.07558,50.259491)">
</g>
<g
   id="g20"
   transform="translate(333.07558,50.259491)">
</g>
<g
   id="g22"
   transform="translate(333.07558,50.259491)">
</g>
<g
   id="g24"
   transform="translate(333.07558,50.259491)">
</g>
<g
   id="g26"
   transform="translate(333.07558,50.259491)">
</g>
<g
   id="g28"
   transform="translate(333.07558,50.259491)">
</g>
<g
   id="g30"
   transform="translate(333.07558,50.259491)">
</g>
<g
   id="g32"
   transform="translate(333.07558,50.259491)">
</g>
<g
   id="g34"
   transform="translate(333.07558,50.259491)">
</g>
<g
   id="g36"
   transform="translate(333.07558,50.259491)">
</g>
<g
   inkscape:groupmode="layer"
   id="layer2"
   inkscape:label="Layer 1"
   transform="translate(333.07558,50.259491)"><ellipse
     style="fill:#ff5e5b;fill-opacity:1"
     id="path888"
     cx="0.85184783"
     cy="278.55682"
     rx="333.92743"
     ry="328.81631" /></g><g
   inkscape:groupmode="layer"
   id="layer3"
   inkscape:label="Layer 2"
   transform="translate(333.07558,50.259491)"><path
     style="fill:#ffb238;fill-opacity:1;stroke-width:0.602353"
     d="m -131.11595,503.76753 c -13.99904,-1.4119 -27.49836,-8.74274 -36.15201,-19.63245 -4.49621,-5.65802 -8.55086,-13.88452 -10.36033,-21.02015 l -1.37472,-5.42117 V 354.99258 252.2914 l 1.35134,-5.30151 c 5.20126,-20.40529 20.90619,-35.624 41.15843,-39.88419 6.26364,-1.31759 269.71844,-1.35258 276.59578,-0.0367 20.19377,3.86371 36.31339,19.34862 41.55723,39.92092 l 1.35134,5.30151 v 102.70118 102.70118 l -1.37472,5.42117 c -4.92984,19.44078 -19.7668,34.38482 -39.2841,39.56762 l -5.12,1.3596 -131.915302,0.0905 c -72.55341,0.0498 -133.948228,-0.11452 -136.432938,-0.36513 z M 28.474636,439.3388 c 1.28066,-0.65335 2.8953,-1.9085 3.58807,-2.78923 2.83826,-3.60825 2.81341,-4.19469 -1.44638,-34.12685 -2.1802,-15.31952 -4.10982,-28.68652 -4.28806,-29.70445 -0.3064,-1.74984 -0.10831,-1.97695 3.63254,-4.16469 8.34726,-4.88166 16.99796,-14.75538 21.11672,-24.10218 3.18265,-7.22246 4.20523,-12.50454 4.19804,-21.6847 -0.005,-6.25812 -0.2923,-9.50723 -1.11435,-12.59854 -5.04679,-18.97826 -17.83444,-32.52959 -36.49599,-38.67552 -4.82005,-1.58741 -5.73755,-1.68619 -15.661178,-1.68619 -9.92363,0 -10.84113,0.0988 -15.66118,1.68619 -22.26385,7.3323 -36.51279,25.66391 -37.74779,48.56347 -0.63808,11.83118 2.23274,22.35873 8.82646,32.36754 4.128,6.26603 10.73938,12.68745 16.57876,16.10245 2.1503,1.25755 3.90963,2.46938 3.90963,2.69297 0,0.22359 -1.88501,13.57106 -4.18891,29.66104 -4.49308,31.37876 -4.50699,31.667 -1.71778,35.59119 0.65166,0.91682 2.17948,2.19237 3.39518,2.83456 2.07847,1.09794 3.65813,1.16918 26.47904,1.19421 22.994678,0.0252 24.390938,-0.0357 26.597178,-1.16127 z"
     id="path868" /><path
     style="fill:#362e22;fill-opacity:1;stroke-width:0.62591"
     d="m -25.345012,441.64331 c -4.02615,-1.55083 -6.36868,-5.20243 -6.36868,-9.92763 0,-1.81378 1.86274,-15.85966 4.13942,-31.21307 2.27668,-15.35342 4.13632,-28.20905 4.13253,-28.56804 -0.004,-0.359 -1.7663,-1.62164 -3.91669,-2.80584 -2.15038,-1.18421 -6.17991,-4.20757 -8.95451,-6.71859 -8.18794,-7.41008 -12.95066,-14.78504 -16.20172,-25.088 -1.52731,-4.84023 -1.70756,-6.38544 -1.70756,-14.63904 0,-8.2536 0.18025,-9.79881 1.70756,-14.63905 6.20047,-19.64995 22.30401,-34.17154 42.42914,-38.26099 5.85562,-1.18988 17.118808,-1.18988 22.974428,0 20.12513,4.08945 36.22868,18.61104 42.42915,38.26099 1.52732,4.84024 1.70755,6.38545 1.70755,14.63905 0,8.2536 -0.18023,9.79881 -1.70755,14.63904 -3.19487,10.1249 -7.9174,17.52049 -15.81594,24.76814 -2.59951,2.38529 -6.57567,5.40621 -8.83592,6.71316 -2.26025,1.30696 -4.19539,2.43605 -4.30031,2.5091 -0.10491,0.0731 1.84073,13.90027 4.3237,30.72717 4.92085,33.34848 4.89609,32.70591 1.41437,36.70295 -3.09527,3.5534 -3.46027,3.59545 -30.841008,3.55278 -15.03153,-0.0233 -25.65153,-0.28372 -26.60796,-0.65213 z"
     id="path872" /><path
     style="fill:#362e22;fill-opacity:1;stroke-width:0.602353"
     d="m -138.22284,178.80434 c 0.59482,-64.66996 0.57533,-64.37069 5.31782,-81.646473 10.54975,-38.430253 37.084538,-70.316248 72.951418,-87.6633547 13.75753,-6.653863 25.81789,-10.36351818 41.26118,-12.6915643 9.39533,-1.416327 27.804558,-1.4104603 37.558278,0.011969 58.17979,8.4846203 112.295774,50.765095 115.946424,110.001803 1.17916,19.13344 1.3243,-24.284332 1.60509,18.70751 l 0.24588,37.64706 -31.84734,-0.16101 -31.847345,-0.16101 v -40.81479 c 0,-24.943702 1.457091,2.34875 1.069491,-0.77064 -1.76092,-14.1719 -9.68685,-29.612373 -21.03112,-40.970672 -9.50596,-9.517724 -20.9709,-16.122121 -34.20322,-19.702826 -5.49114,-1.485914 -6.71385,-1.589139 -18.82319804,-1.589139 -12.05482996,0 -13.34945996,0.108056 -18.71737996,1.562298 -23.50385,6.367509 -42.77753,23.424952 -51.2282,45.337589 -4.64733,12.05054 -4.39115,8.825 -4.60526,57.98462 l -0.19211,44.11196 -31.865938,0.16098 -31.86594,0.16099 z"
     id="path874"
     sodipodi:nodetypes="ssssssscccsssssssscccs" /><rect
     style="fill:#ff5e5b;fill-opacity:1"
     id="rect1046"
     width="109.88938"
     height="58.778042"
     x="46.852062"
     y="105.6301" /></g></svg>
