<?xml version="1.0" encoding="UTF-8" standalone="no"?>
<svg
   xmlns:dc="http://purl.org/dc/elements/1.1/"
   xmlns:cc="http://creativecommons.org/ns#"
   xmlns:rdf="http://www.w3.org/1999/02/22-rdf-syntax-ns#"
   xmlns:svg="http://www.w3.org/2000/svg"
   xmlns="http://www.w3.org/2000/svg"
   xmlns:sodipodi="http://sodipodi.sourceforge.net/DTD/sodipodi-0.dtd"
   xmlns:inkscape="http://www.inkscape.org/namespaces/inkscape"
   data-name="Layer 1"
   viewBox="0 0 53.835301 55.977614"
   version="1.1"
   id="svg1031"
   sodipodi:docname="read.svg"
   width="53.8353"
   height="55.977615"
   inkscape:version="1.0.1 (3bc2e813f5, 2020-09-07)">
  <metadata
     id="metadata1037">
    <rdf:RDF>
      <cc:Work
         rdf:about="">
        <dc:format>image/svg+xml</dc:format>
        <dc:type
           rdf:resource="http://purl.org/dc/dcmitype/StillImage" />
        <dc:title></dc:title>
      </cc:Work>
    </rdf:RDF>
  </metadata>
  <defs
     id="defs1035" />
  <sodipodi:namedview
     pagecolor="#ffffff"
     bordercolor="#666666"
     borderopacity="1"
     objecttolerance="10"
     gridtolerance="10"
     guidetolerance="10"
     inkscape:pageopacity="0"
     inkscape:pageshadow="2"
     inkscape:window-width="1920"
     inkscape:window-height="1017"
     id="namedview1033"
     showgrid="false"
     showborder="false"
     fit-margin-top="0"
     fit-margin-left="0"
     fit-margin-right="0"
     fit-margin-bottom="0"
     inkscape:object-nodes="false"
     inkscape:zoom="13.28125"
     inkscape:cx="26.685653"
     inkscape:cy="30.170584"
     inkscape:window-x="-8"
     inkscape:window-y="-8"
     inkscape:window-maximized="1"
     inkscape:current-layer="svg1031" />
  <path
     fill="#611c24"
     d="m 30.098693,30.08608 a 0.97762238,0.97762238 0 0 1 0.977622,1.222028 4.8881119,4.8881119 0 0 1 -9.463385,0 0.97762238,0.97762238 0 0 1 0.977623,-1.222028 z"
     id="path999"
     style="stroke-width:0.977622" />
  <path
     fill="#be1e2d"
     d="m 28.68114,34.368066 a 4.8881119,4.8881119 0 0 1 -4.731692,0 c 0.195524,-1.202476 1.182923,-1.534867 2.365846,-1.534867 1.182923,0 2.170322,0.332391 2.365846,1.534867 z"
     id="path1001"
     style="stroke-width:0.977622" />
  <path
     fill="#ffffff"
     d="m 29.12107,30.08608 v 0.928741 a 0.36172028,0.36172028 0 0 1 -0.351944,0.36172 H 23.881014 A 0.36172028,0.36172028 0 0 1 23.52907,31.014821 V 30.08608 Z"
     id="path1003"
     style="stroke-width:0.977622" />
  <path
     fill="#d1d3d4"
     d="m 30.900343,44.466905 v 11.096014 a 26.395804,26.395804 0 0 1 -9.170098,0 V 44.466905 Z"
     id="path1007"
     style="stroke-width:0.977622" />
  <path
     fill="#be1e2d"
     d="m 27.771951,48.005898 h -2.932867 a 0.48881119,0.48881119 0 0 1 -0.469258,-0.36172 l -0.703889,-2.561371 a 0.48881119,0.48881119 0 0 1 0.469259,-0.615902 h 4.321091 a 0.48881119,0.48881119 0 0 1 0.469259,0.615902 l -0.655007,2.561371 a 0.48881119,0.48881119 0 0 1 -0.498588,0.36172 z"
     id="path1009"
     style="stroke-width:0.977622" />
  <path
     fill="#be1e2d"
     d="m 28.583378,55.865982 c -0.752769,0.06843 -1.505538,0.09776 -2.268084,0.09776 -0.762545,0 -1.515315,0 -2.268084,-0.09776 l 1.613077,-8.886587 h 1.310014 z"
     id="path1011"
     style="stroke-width:0.977622" />
  <polygon
     fill="#f1f2f2"
     points="32,47.24 28.34,51.28 26.18,44 28,42.74 "
     id="polygon1013"
     transform="matrix(0.97762238,0,0,0.97762238,-4.968622,-1.7159762)" />
  <polygon
     fill="#f1f2f2"
     points="32,47.24 35.66,51.28 37.82,44 36,42.74 "
     id="polygon1015"
     transform="matrix(0.97762238,0,0,0.97762238,-4.968622,-1.7159762)" />
  <path
     fill="#2a292a"
     d="m 25.239909,55.963744 a 25.662587,25.662587 0 0 1 -6.579398,-1.094937 l 0.07821,-13.061035 a 0.83097902,0.83097902 0 0 1 0.127091,-0.459482 0.97762238,0.97762238 0 0 1 0.674559,-0.498588 l 2.375622,-0.410601 0.195525,0.889636 z m 8.730168,-1.124266 a 25.662587,25.662587 0 0 1 -6.579398,1.124266 l 3.128391,-14.664336 0.195525,-0.889636 2.375622,0.410602 a 0.97762238,0.97762238 0 0 1 0.67456,0.498587 v 0 a 0.91896504,0.91896504 0 0 1 0.117314,0.459482 z"
     id="path1017"
     style="stroke-width:0.977622" />
  <path
     fill="#d1d3d4"
     d="m 35.016133,39.461478 -8.700839,2.5907 -8.700839,-2.5907 a 0.63545455,0.63545455 0 0 0 -0.811427,0.606126 v 15.084714 l 9.512266,1.955244 9.512266,-1.955244 V 40.067604 a 0.63545455,0.63545455 0 0 0 -0.811427,-0.606126 z"
     id="path1021"
     style="stroke-width:0.977622" />
  <path
     fill="#a21b25"
     d="m 27.048511,42.22815 v 15.690839 a 4.6143776,4.6143776 0 0 1 -1.466434,0 V 42.22815 a 5.2693846,5.2693846 0 0 0 1.466434,0 z"
     id="path1029"
     style="stroke-width:0.977622" />
  <path
     style="fill:#ff5e5b;fill-opacity:1;stroke-width:0.0736092"
     d="M 9.2011521,49.608645 C 8.8367864,49.299898 8.1037641,48.608643 7.5722142,48.072526 3.7822743,44.250018 1.2060614,39.245835 0.33847438,34.021297 0.05165268,32.294076 0,31.614479 0,29.56794 0,27.521401 0.05164779,26.841804 0.33847438,25.114583 1.9257704,15.556018 8.9696316,7.4414165 18.256947,4.4723167 c 2.750522,-0.8793253 4.99918,-1.2196709 8.058347,-1.2196709 3.196331,0 5.450532,0.3576025 8.366548,1.3272534 5.255954,1.7477405 9.874237,5.1803789 13.158554,9.7803798 2.207226,3.091432 3.830358,7.012545 4.451715,10.754304 0.286825,1.727221 0.338482,2.406818 0.338482,4.453357 0,2.496982 -0.179462,4.085028 -0.704611,6.235163 -1.147163,4.696879 -3.546998,8.950785 -6.988655,12.387968 -1.112832,1.111384 -2.172933,2.030021 -2.230949,1.933238 -0.01853,-0.03091 -0.204534,-0.66684 -0.413344,-1.413176 -0.529846,-1.893797 -0.892631,-2.723095 -1.664335,-3.804542 -0.649273,-0.909873 -1.844585,-1.963329 -2.84877,-2.510682 l -0.349643,-0.190582 v -0.618818 c 0,-0.340351 -0.03579,-0.685695 -0.07953,-0.76743 -0.12686,-0.23704 -0.493683,-0.354062 -0.87769,-0.279998 -0.571327,0.110195 -0.566818,0.112697 -0.603959,-0.335176 -0.06282,-0.757613 -0.420238,-0.919141 -1.383185,-0.625112 -0.263153,0.08035 -0.503303,0.146347 -0.533667,0.146656 -0.03037,2.94e-4 -0.05521,-0.178676 -0.05521,-0.397746 0,-0.354404 -0.02496,-0.419311 -0.226476,-0.588872 -0.124561,-0.104812 -0.298462,-0.190495 -0.386448,-0.190406 -0.08799,7.4e-5 -0.79878,0.295607 -1.579547,0.656707 l -1.419572,0.656546 0.021,-0.708466 0.021,-0.708467 0.469917,-0.265383 c 1.177678,-0.665088 3.007175,-2.238751 3.919207,-3.37115 1.193488,-1.481861 2.006414,-3.22362 2.166993,-4.642954 0.02785,-0.246168 0.08783,-0.496403 0.133284,-0.556078 0.04546,-0.05967 0.319779,-0.157204 0.609608,-0.21673 0.289827,-0.05953 0.627805,-0.16038 0.751064,-0.224119 0.361182,-0.186775 0.730417,-0.619101 0.908454,-1.063683 0.146582,-0.366029 0.16588,-0.545318 0.167352,-1.554686 0.0016,-1.106451 -0.0048,-1.15498 -0.212737,-1.605286 -0.26364,-0.570983 -0.727918,-1.001817 -1.24509,-1.1554 -0.20386,-0.06054 -0.411356,-0.110073 -0.461101,-0.110073 -0.06112,0 -0.105387,-0.208837 -0.136527,-0.644081 -0.177236,-2.4773 -0.624537,-4.342668 -1.436909,-5.992315 -0.534567,-1.085522 -0.985897,-1.717791 -1.837543,-2.574225 -1.420791,-1.428777 -2.938439,-2.217315 -5.119199,-2.65983 -0.71974,-0.146048 -1.02772,-0.164336 -2.72528,-0.161826 -2.107631,0.0031 -2.69539,0.08267 -4.122116,0.55792 -2.771255,0.923123 -4.742117,2.864152 -5.920712,5.831094 -0.446521,1.124052 -0.833998,2.891189 -0.922655,4.207883 -0.09798,1.455166 -0.08706,1.414308 -0.393113,1.47063 -0.706268,0.129973 -1.242254,0.54277 -1.530651,1.178854 -0.407908,0.899673 -0.382887,2.513935 0.05284,3.409349 0.334683,0.687763 0.677897,0.902131 1.864211,1.16437 l 0.290018,0.06411 0.16114,0.809701 c 0.335617,1.686419 0.990859,3.042075 2.170269,4.490162 0.934489,1.147372 2.612074,2.59072 3.901546,3.356781 l 0.511126,0.303654 v 0.686429 0.68643 l -1.26976,-0.590915 c -1.599342,-0.744294 -1.5947,-0.74254 -1.818955,-0.686934 -0.360277,0.08933 -0.518137,0.31709 -0.518137,0.747548 0,0.215611 -0.02484,0.391767 -0.05521,0.391458 -0.03036,-2.94e-4 -0.270514,-0.0663 -0.533667,-0.146656 -0.962947,-0.294029 -1.320358,-0.132501 -1.383185,0.625112 -0.03708,0.447201 -0.03359,0.445234 -0.597254,0.336402 -0.702945,-0.135724 -0.96393,0.157821 -0.96393,1.08419 v 0.58083 l -0.349643,0.190582 c -0.612691,0.33396 -1.364404,0.899648 -1.89843,1.428627 -1.270044,1.258041 -1.953121,2.520068 -2.582527,4.771385 -0.226369,0.809702 -0.4328403,1.495113 -0.4588245,1.523134 -0.025985,0.02802 -0.3453598,-0.201662 -0.7097255,-0.51041 z"
     id="path1602" />
  <path
     style="fill:#ff5e5b;fill-opacity:1;stroke-width:0.0736092"
     d="m 27.051386,50.087722 v -7.82257 l 4.766197,-0.843705 c 2.621408,-0.464037 4.858436,-0.841295 4.971172,-0.83835 0.112737,0.0029 0.286638,0.08207 0.386449,0.17584 l 0.181473,0.170484 v 3.152365 3.152365 h -0.390399 c -0.721836,0 -1.358021,0.440562 -1.700704,1.177748 -0.144026,0.309829 -0.153979,0.457334 -0.153979,2.281886 0,1.833066 0.0094,1.971006 0.156252,2.288465 0.314476,0.679905 0.920399,1.100799 1.665576,1.156961 l 0.423254,0.0319 -2.96e-4,0.672038 c -2.94e-4,0.726359 -0.112065,1.032308 -0.456268,1.248958 -0.093,0.05855 -2.272499,0.474734 -4.8433,0.92485 -2.570802,0.450115 -4.748715,0.835254 -4.839806,0.855864 l -0.165621,0.03747 z"
     id="path1604" />
  <path
     style="fill:#ff5e5b;fill-opacity:1;stroke-width:0.0736092"
     d="m 20.712907,57.062406 c -2.615734,-0.45744 -4.818491,-0.865442 -4.895013,-0.906669 -0.07652,-0.04123 -0.221942,-0.163398 -0.323154,-0.271487 -0.16731,-0.178677 -0.186279,-0.265354 -0.208858,-0.954366 l -0.02483,-0.757842 0.429686,-0.03237 c 0.741076,-0.05582 1.36108,-0.485379 1.672644,-1.158864 0.146038,-0.31568 0.155616,-0.456445 0.155616,-2.287028 0,-1.824552 -0.01,-1.972057 -0.153978,-2.281886 -0.342684,-0.737186 -0.978868,-1.177748 -1.700706,-1.177748 H 15.273917 V 44.10986 40.985573 l 0.170311,-0.197999 c 0.108745,-0.126423 0.248442,-0.200274 0.386448,-0.204296 0.118875,-0.0034 2.360926,0.373116 4.982335,0.836847 l 4.766196,0.843147 v 7.822105 c 0,4.302158 -0.02484,7.819096 -0.05521,7.815419 -0.03036,-0.0037 -2.195354,-0.380956 -4.811088,-0.838395 z"
     id="path1606" />
  <path
     style="fill:#49beaa;fill-opacity:1;stroke-width:0.0736092"
     d="m 25.855237,57.931072 -0.276035,-0.03247 v -7.816541 -7.816536 h 0.736092 0.736092 v 7.820979 c 0,7.576327 -0.0043,7.820979 -0.136944,7.820979 -0.07532,0 -0.282346,0.01261 -0.460058,0.02803 -0.177712,0.01542 -0.447328,0.01341 -0.599147,-0.0044 z"
     id="path1608" />
  <path
     style="fill:#58af9f;fill-opacity:1;stroke-width:0.0736092"
     d="m 25.630923,57.861063 c -0.02845,-0.02845 -0.05172,-3.540798 -0.05172,-7.805226 v -7.753503 h 0.736087 0.736092 l -0.01023,4.140518 c -0.0057,2.277285 -0.03047,5.780164 -0.05521,7.784174 l -0.04498,3.643657 -0.629164,0.02105 c -0.34604,0.01158 -0.652438,-0.0022 -0.680886,-0.03067 z"
     id="path1618" />
  <path
     style="fill:#49beaa;fill-opacity:1;stroke-width:0.0736092"
     d="m 27.051386,50.073956 v -7.759925 l 0.202426,-0.04256 c 0.755432,-0.158797 9.436294,-1.662157 9.597804,-1.662157 0.02866,0 0.154024,0.08576 0.278585,0.190566 l 0.226476,0.190566 v 3.121848 3.121848 l -0.423254,0.0017 c -0.532533,0.0021 -0.93027,0.17902 -1.283997,0.571355 -0.548821,0.608725 -0.537831,0.549736 -0.537831,2.886662 0,2.311321 -0.0072,2.269532 0.49127,2.837297 0.299454,0.34106 0.668866,0.524894 1.239405,0.616777 0.253161,0.04077 0.477691,0.09152 0.498955,0.11279 0.02126,0.02126 0.0048,0.356687 -0.03659,0.745385 -0.104723,0.98341 -0.136755,1.010847 -1.500813,1.285477 -1.179155,0.237403 -8.502147,1.542367 -8.655211,1.542367 -0.07994,0 -0.09722,-1.37941 -0.09722,-7.759922 z"
     id="path1620" />
  <path
     style="fill:#49beaa;fill-opacity:1;stroke-width:0.0736092"
     d="m 23.150098,57.459047 c -1.11334,-0.198892 -2.686736,-0.479387 -3.496438,-0.623323 -3.646402,-0.648197 -3.833047,-0.690794 -4.058679,-0.926302 -0.188133,-0.19637 -0.21245,-0.283412 -0.259702,-0.929606 -0.02867,-0.392123 -0.04204,-0.723048 -0.02969,-0.73539 0.01234,-0.01234 0.229991,-0.05586 0.483665,-0.09672 0.728844,-0.117377 1.17592,-0.413965 1.52876,-1.014176 l 0.200982,-0.341885 v -2.097862 c 0,-2.336926 0.01099,-2.277937 -0.537831,-2.886662 -0.353726,-0.392335 -0.751464,-0.569321 -1.283997,-0.571355 l -0.423253,-0.0017 V 44.11226 40.990412 l 0.226476,-0.190567 c 0.12456,-0.104811 0.250859,-0.190566 0.280663,-0.190566 0.170442,0 9.125085,1.542386 9.644599,1.661228 l 0.17769,0.04065 -0.04878,6.344363 c -0.02684,3.489399 -0.04882,6.982003 -0.04887,7.76134 l -8.8e-5,1.416978 -0.165621,-0.0066 c -0.09109,-0.0036 -1.076535,-0.169335 -2.189874,-0.368226 z"
     id="path1622" />
  <path
     style="fill:#95d9cd;fill-opacity:1;stroke-width:0.0736092"
     d="m 25.636873,55.975246 c -0.03182,-2.834778 -0.03392,-11.674697 -0.003,-12.734395 l 0.02737,-0.938517 h 0.695016 0.695017 l -0.03845,5.539094 c -0.02115,3.046501 -0.05804,6.541098 -0.082,7.765771 l -0.04355,2.226679 h -0.614759 -0.614758 z"
     id="path1624" />
  <path
     style="fill:#201e1f;fill-opacity:1;stroke-width:0.0741002"
     d="m 16.280274,26.557949 c -0.315309,-0.07895 -0.544652,-0.210961 -0.624236,-0.359318 -0.196705,-0.366686 -0.335624,-1.419197 -0.332537,-2.519428 0.01614,-5.752009 2.577415,-9.957262 6.943053,-11.399522 1.47357,-0.486817 2.012364,-0.55854 4.195867,-0.55854 2.171225,0 2.753241,0.07641 4.191912,0.550315 3.357246,1.105898 5.616441,3.77316 6.545082,7.727286 0.489433,2.083992 0.560821,5.23546 0.139275,6.148432 -0.22782,0.493406 -1.727667,0.538253 -1.985687,0.05938 -0.04002,-0.07428 -0.07561,-0.601105 -0.07909,-1.170731 -0.01,-1.629535 -0.275014,-3.226324 -0.803229,-4.838678 -0.342268,-1.044755 -0.566595,-1.302538 -1.133489,-1.302538 -0.206692,0 -0.587683,0.04836 -0.846647,0.107465 -2.417821,0.551842 -6.895008,0.511064 -11.708507,-0.106642 -1.556339,-0.199721 -1.742177,-0.125395 -2.114439,0.845682 -0.550937,1.437164 -0.902453,3.330859 -0.991417,5.340976 l -0.05322,1.202406 -0.223783,0.126893 c -0.269203,0.152646 -0.811126,0.223632 -1.118918,0.146565 z"
     id="path1626" />
  <path
     style="fill:#201e1f;fill-opacity:1;stroke-width:0.0809081"
     d="m 21.367254,27.28399 c -0.783264,-0.301985 -1.181345,-0.794798 -1.187525,-1.47012 -0.0081,-0.892667 0.863982,-1.619403 1.943437,-1.619403 1.150266,0 1.981807,0.770929 1.895597,1.757426 -0.09442,1.080484 -1.48809,1.780651 -2.651509,1.332097 z"
     id="path1628" />
  <path
     style="fill:#201e1f;fill-opacity:1;stroke-width:0.0785507"
     d="m 29.150263,27.227655 c -0.651216,-0.298742 -0.939892,-0.690457 -0.981129,-1.331329 -0.03752,-0.582978 0.134528,-0.962216 0.589241,-1.298904 1.221215,-0.904229 3.041992,-0.173246 3.030004,1.216448 -0.0058,0.677025 -0.385043,1.173671 -1.119332,1.465999 -0.529029,0.210613 -0.979629,0.195121 -1.518784,-0.05221 z"
     id="path1630" />
  <path
     style="fill:#201e1f;fill-opacity:1;stroke-width:0.0736092"
     d="m 39.638562,50.629552 c 0,-1.899263 -0.05792,-2.221654 -0.48972,-2.726122 -0.329048,-0.384419 -0.910007,-0.669279 -1.364963,-0.669279 h -0.353593 v -2.470502 -2.470503 l 0.357893,0.194789 c 0.600613,0.326895 1.587351,1.10867 2.104912,1.667681 1.107374,1.196068 1.680566,2.307754 2.289446,4.440305 0.231185,0.809703 0.434172,1.508948 0.451085,1.553879 0.04216,0.112014 -1.373928,1.15192 -2.682221,1.969689 l -0.312839,0.195545 z"
     id="path1632" />
  <path
     style="fill:#201e1f;fill-opacity:1;stroke-width:0.0736092"
     d="M 12.068031,51.71646 C 11.62483,51.428745 10.975351,50.980455 10.624746,50.720261 L 9.9872817,50.247179 10.060525,49.97362 c 0.420514,-1.57053 0.860366,-2.960565 1.097194,-3.467387 0.776427,-1.661588 2.094636,-3.095252 3.692937,-4.016382 L 15.2003,42.288345 v 2.472904 2.472902 h -0.353594 c -0.454956,0 -1.035915,0.28486 -1.364963,0.669279 -0.42998,0.502335 -0.489719,0.830287 -0.489719,2.688394 0,0.906264 -0.02659,1.647754 -0.05909,1.647754 -0.0325,0 -0.421706,-0.235403 -0.864908,-0.523118 z"
     id="path1634" />
  <path
     style="fill:#ffae79;fill-opacity:1;stroke-width:0.0736092"
     d="m 25.071639,39.236751 c -2.248988,-0.350288 -4.065719,-1.382401 -6.185677,-3.514179 -1.798447,-1.808474 -2.729428,-3.478341 -3.089087,-5.540775 -0.06003,-0.344224 -0.126106,-0.653311 -0.146842,-0.686861 -0.02074,-0.03355 -0.266934,-0.09967 -0.547108,-0.146924 -1.391424,-0.234695 -1.974716,-1.159969 -1.899207,-3.012715 0.01911,-0.468968 0.07306,-0.974619 0.119876,-1.12367 0.22139,-0.704812 0.905802,-1.31601 1.596796,-1.425982 l 0.30126,-0.04794 0.04752,0.725246 c 0.06293,0.960368 0.227995,1.701498 0.425871,1.912127 0.444492,0.47314 1.900375,0.319284 2.010699,-0.212489 0.01879,-0.09058 0.0493,-0.744363 0.0678,-1.452852 0.03837,-1.46989 0.196877,-2.505485 0.594667,-3.885356 0.340564,-1.181366 0.528552,-1.60501 0.797045,-1.796194 0.279691,-0.199157 0.518052,-0.199172 2.041902,-1.31e-4 4.126616,0.539007 8.889912,0.560739 11.089616,0.05059 1.199489,-0.27818 1.460649,-0.101001 1.898706,1.288145 0.463019,1.468305 0.698311,2.899055 0.765398,4.654186 l 0.04801,1.255971 0.204779,0.152637 c 0.304472,0.226948 1.101091,0.258167 1.54761,0.06065 0.282181,-0.124822 0.34875,-0.194398 0.412382,-0.431008 0.122068,-0.453903 0.224498,-1.273793 0.22607,-1.80955 0.0017,-0.566865 0.02358,-0.580712 0.605442,-0.382453 0.46994,0.160124 0.896888,0.552266 1.139749,1.046832 0.201425,0.410184 0.206912,0.453565 0.206912,1.635909 0,1.119172 -0.01366,1.244767 -0.173958,1.599311 -0.321429,0.71093 -0.767497,1.007109 -1.879719,1.248089 -0.15788,0.03421 -0.312548,0.111425 -0.343704,0.171594 -0.03116,0.06017 -0.1107,0.405504 -0.176759,0.767413 -0.358801,1.965691 -1.330786,3.688826 -3.055991,5.417652 -1.399525,1.402465 -2.780514,2.384325 -4.104391,2.918155 -1.089373,0.43927 -1.680112,0.549937 -3.073481,0.575769 -0.688246,0.01276 -1.35073,0.0077 -1.472185,-0.01119 z m 2.220204,-4.330511 c 1.428942,-0.269423 2.781135,-1.281544 3.398306,-2.543641 0.430111,-0.879567 0.514171,-1.243122 0.377884,-1.634329 -0.06905,-0.198198 -0.197357,-0.369283 -0.357772,-0.477045 l -0.250116,-0.16802 H 26.30345 22.146756 l -0.29575,0.295749 c -0.295597,0.295598 -0.29573,0.295992 -0.25788,0.76752 0.05515,0.687049 0.508462,1.586852 1.132945,2.248836 1.262123,1.337917 2.794266,1.844943 4.565772,1.51093 z m -4.055105,-7.604857 c 0.586001,-0.300433 0.873132,-0.789801 0.872779,-1.487513 -2.94e-4,-0.559065 -0.174345,-0.955698 -0.573022,-1.305741 -0.530632,-0.465901 -1.3708,-0.517886 -2.007545,-0.124217 -0.679198,0.419916 -0.962262,1.389924 -0.623363,2.136147 0.154062,0.339229 0.602772,0.749414 0.974142,0.890507 0.333032,0.126526 1.002282,0.07268 1.357009,-0.109183 z m 7.655245,0.03026 c 1.038142,-0.483407 1.317495,-1.798834 0.560357,-2.638618 -0.34957,-0.387729 -0.752415,-0.568925 -1.264861,-0.568925 -1.432595,0 -2.212971,1.656534 -1.301368,2.762466 0.281862,0.341947 0.864197,0.618885 1.301368,0.618885 0.193674,0 0.486262,-0.07219 0.704504,-0.173808 z"
     id="path1640" />
  <path
     style="fill:#e4ac8c;fill-opacity:1;stroke-width:0.0824278"
     d="M 24.649287,40.934478 C 23.943307,40.794796 23.354124,40.617635 22.63938,40.330122 L 22.090466,40.109316 V 39.32879 c 0,-0.429289 0.02457,-0.780526 0.05461,-0.780526 0.03003,0 0.292649,0.09784 0.583587,0.217426 0.290937,0.119584 0.879317,0.314134 1.307511,0.432334 0.707275,0.195238 0.919956,0.214909 2.323626,0.214909 1.403673,0 1.616351,-0.01967 2.323628,-0.214909 0.428195,-0.1182 1.016575,-0.31275 1.307511,-0.432334 0.290937,-0.119584 0.55355,-0.217426 0.583585,-0.217426 0.03004,0 0.05461,0.348934 0.05461,0.775409 v 0.775408 l -0.264293,0.109067 c -1.544754,0.637487 -2.158954,0.76927 -3.761079,0.806974 -0.949109,0.02234 -1.561758,-0.0029 -1.954475,-0.08064 z"
     id="path1650" />
  <path
     style="fill:#ffae79;fill-opacity:1;stroke-width:0.0736092"
     d="m 25.055582,41.139478 c -0.656593,-0.307659 -1.18205,-0.571137 -1.167683,-0.585504 0.01436,-0.01437 0.303148,0.03361 0.641736,0.106625 0.851638,0.18364 2.726543,0.181379 3.584549,-0.0043 0.337392,-0.07302 0.625064,-0.121145 0.639272,-0.106937 0.02781,0.02781 -2.406029,1.168973 -2.467265,1.156824 -0.02025,-0.004 -0.574017,-0.259024 -1.230609,-0.566683 z"
     id="path1652" />
  <path
     style="fill:#ffae79;fill-opacity:1;stroke-width:0.0803424"
     d="m 13.87818,54.092547 c -0.459122,-0.231318 -0.767824,-0.557824 -0.986993,-1.04392 -0.129149,-0.286438 -0.145897,-0.566773 -0.147451,-2.468264 -0.0018,-2.145102 -0.0018,-2.145131 0.204214,-2.563015 0.405742,-0.823206 1.062698,-1.182606 2.151156,-1.176833 0.831292,0.0044 1.143912,0.111492 1.634965,0.560027 0.671539,0.613393 0.68221,0.663195 0.68221,3.184156 0,2.123701 -0.0076,2.235812 -0.172779,2.544713 -0.229617,0.429442 -0.625563,0.80226 -1.065711,1.003463 -0.27973,0.127873 -0.529046,0.16476 -1.122923,0.166142 -0.662322,0.0015 -0.81807,-0.02579 -1.176688,-0.206469 z"
     id="path1654" />
  <path
     style="fill:#ffae79;fill-opacity:1;stroke-width:0.0784127"
     d="m 36.538692,54.292633 c -0.220341,-0.07021 -0.698435,-0.421017 -0.874455,-0.641653 -0.05461,-0.06845 -0.18271,-0.30624 -0.28466,-0.528407 -0.182094,-0.396818 -0.185272,-0.440245 -0.180315,-2.46402 0.0033,-1.364129 0.03522,-2.146984 0.09439,-2.317315 0.182037,-0.524102 0.55168,-0.966284 1.004249,-1.20132 0.382992,-0.198903 0.523968,-0.226971 1.140003,-0.226971 0.611479,0 0.758331,0.02875 1.128383,0.220936 0.239977,0.12463 0.526755,0.356752 0.657895,0.532511 0.424342,0.56872 0.458941,0.793771 0.458473,2.982119 -2.35e-4,1.121071 -0.03478,2.120671 -0.07916,2.290249 -0.12048,0.460487 -0.522238,0.958231 -0.976983,1.2104 -0.367188,0.203617 -0.478382,0.224943 -1.140224,0.218675 -0.403348,-0.0039 -0.82977,-0.03766 -0.947604,-0.07521 z"
     id="path1656" />
  <path
     style="fill:#ffae79;fill-opacity:1;stroke-width:0.0736092"
     d="m 25.071639,39.236751 c -2.248988,-0.350288 -4.065719,-1.382401 -6.185677,-3.514179 -1.798447,-1.808474 -2.729428,-3.478341 -3.089087,-5.540775 -0.06003,-0.344224 -0.126106,-0.653311 -0.146842,-0.686861 -0.02074,-0.03355 -0.266934,-0.09967 -0.547108,-0.146924 -1.391424,-0.234695 -1.974716,-1.159969 -1.899207,-3.012715 0.01911,-0.468968 0.07306,-0.974619 0.119876,-1.12367 0.22139,-0.704812 0.905802,-1.31601 1.596796,-1.425982 l 0.30126,-0.04794 0.04752,0.725246 c 0.06293,0.960368 0.227995,1.701498 0.425871,1.912127 0.444492,0.47314 1.900375,0.319284 2.010699,-0.212489 0.01879,-0.09058 0.0493,-0.744363 0.0678,-1.452852 0.03837,-1.46989 0.196877,-2.505485 0.594667,-3.885356 0.340564,-1.181366 0.528552,-1.60501 0.797045,-1.796194 0.279691,-0.199157 0.518052,-0.199172 2.041902,-1.31e-4 4.126616,0.539007 8.889912,0.560739 11.089616,0.05059 1.199489,-0.27818 1.460649,-0.101001 1.898706,1.288145 0.463019,1.468305 0.698311,2.899055 0.765398,4.654186 l 0.04801,1.255971 0.204779,0.152637 c 0.304472,0.226948 1.101091,0.258167 1.54761,0.06065 0.282181,-0.124822 0.34875,-0.194398 0.412382,-0.431008 0.122068,-0.453903 0.224498,-1.273793 0.22607,-1.80955 0.0017,-0.566865 0.02358,-0.580712 0.605442,-0.382453 0.46994,0.160124 0.896888,0.552266 1.139749,1.046832 0.201425,0.410184 0.206912,0.453565 0.206912,1.635909 0,1.119172 -0.01366,1.244767 -0.173958,1.599311 -0.321429,0.71093 -0.767497,1.007109 -1.879719,1.248089 -0.15788,0.03421 -0.312548,0.111425 -0.343704,0.171594 -0.03116,0.06017 -0.1107,0.405504 -0.176759,0.767413 -0.358801,1.965691 -1.330786,3.688826 -3.055991,5.417652 -1.399525,1.402465 -2.780514,2.384325 -4.104391,2.918155 -1.089373,0.43927 -1.680112,0.549937 -3.073481,0.575769 -0.688246,0.01276 -1.35073,0.0077 -1.472185,-0.01119 z m 2.220204,-4.330511 c 1.428942,-0.269423 2.781135,-1.281544 3.398306,-2.543641 0.430111,-0.879567 0.514171,-1.243122 0.377884,-1.634329 -0.06905,-0.198198 -0.197357,-0.369283 -0.357772,-0.477045 l -0.250116,-0.16802 H 26.30345 22.146756 l -0.29575,0.295749 c -0.295597,0.295598 -0.29573,0.295992 -0.25788,0.76752 0.05515,0.687049 0.508462,1.586852 1.132945,2.248836 1.262123,1.337917 2.794266,1.844943 4.565772,1.51093 z m -4.055105,-7.604857 c 0.586001,-0.300433 0.873132,-0.789801 0.872779,-1.487513 -2.94e-4,-0.559065 -0.174345,-0.955698 -0.573022,-1.305741 -0.530632,-0.465901 -1.3708,-0.517886 -2.007545,-0.124217 -0.679198,0.419916 -0.962262,1.389924 -0.623363,2.136147 0.154062,0.339229 0.602772,0.749414 0.974142,0.890507 0.333032,0.126526 1.002282,0.07268 1.357009,-0.109183 z m 7.655245,0.03026 c 1.038142,-0.483407 1.317495,-1.798834 0.560357,-2.638618 -0.34957,-0.387729 -0.752415,-0.568925 -1.264861,-0.568925 -1.432595,0 -2.212971,1.656534 -1.301368,2.762466 0.281862,0.341947 0.864197,0.618885 1.301368,0.618885 0.193674,0 0.486262,-0.07219 0.704504,-0.173808 z"
     id="path1658" />
  <path
     style="fill:#ffae79;fill-opacity:1;stroke-width:0.0736092"
     d="m 25.071639,39.236751 c -2.248988,-0.350288 -4.065719,-1.382401 -6.185677,-3.514179 -1.798447,-1.808474 -2.729428,-3.478341 -3.089087,-5.540775 -0.06003,-0.344224 -0.126106,-0.653311 -0.146842,-0.686861 -0.02074,-0.03355 -0.266934,-0.09967 -0.547108,-0.146924 -1.391424,-0.234695 -1.974716,-1.159969 -1.899207,-3.012715 0.01911,-0.468968 0.07306,-0.974619 0.119876,-1.12367 0.22139,-0.704812 0.905802,-1.31601 1.596796,-1.425982 l 0.30126,-0.04794 0.04752,0.725246 c 0.06293,0.960368 0.227995,1.701498 0.425871,1.912127 0.444492,0.47314 1.900375,0.319284 2.010699,-0.212489 0.01879,-0.09058 0.0493,-0.744363 0.0678,-1.452852 0.03837,-1.46989 0.196877,-2.505485 0.594667,-3.885356 0.340564,-1.181366 0.528552,-1.60501 0.797045,-1.796194 0.279691,-0.199157 0.518052,-0.199172 2.041902,-1.31e-4 4.126616,0.539007 8.889912,0.560739 11.089616,0.05059 1.199489,-0.27818 1.460649,-0.101001 1.898706,1.288145 0.463019,1.468305 0.698311,2.899055 0.765398,4.654186 l 0.04801,1.255971 0.204779,0.152637 c 0.304472,0.226948 1.101091,0.258167 1.54761,0.06065 0.282181,-0.124822 0.34875,-0.194398 0.412382,-0.431008 0.122068,-0.453903 0.224498,-1.273793 0.22607,-1.80955 0.0017,-0.566865 0.02358,-0.580712 0.605442,-0.382453 0.46994,0.160124 0.896888,0.552266 1.139749,1.046832 0.201425,0.410184 0.206912,0.453565 0.206912,1.635909 0,1.119172 -0.01366,1.244767 -0.173958,1.599311 -0.321429,0.71093 -0.767497,1.007109 -1.879719,1.248089 -0.15788,0.03421 -0.312548,0.111425 -0.343704,0.171594 -0.03116,0.06017 -0.1107,0.405504 -0.176759,0.767413 -0.358801,1.965691 -1.330786,3.688826 -3.055991,5.417652 -1.399525,1.402465 -2.780514,2.384325 -4.104391,2.918155 -1.089373,0.43927 -1.680112,0.549937 -3.073481,0.575769 -0.688246,0.01276 -1.35073,0.0077 -1.472185,-0.01119 z m 2.220204,-4.330511 c 1.428942,-0.269423 2.781135,-1.281544 3.398306,-2.543641 0.430111,-0.879567 0.514171,-1.243122 0.377884,-1.634329 -0.06905,-0.198198 -0.197357,-0.369283 -0.357772,-0.477045 l -0.250116,-0.16802 H 26.30345 22.146756 l -0.29575,0.295749 c -0.295597,0.295598 -0.29573,0.295992 -0.25788,0.76752 0.05515,0.687049 0.508462,1.586852 1.132945,2.248836 1.262123,1.337917 2.794266,1.844943 4.565772,1.51093 z m -4.055105,-7.604857 c 0.586001,-0.300433 0.873132,-0.789801 0.872779,-1.487513 -2.94e-4,-0.559065 -0.174345,-0.955698 -0.573022,-1.305741 -0.530632,-0.465901 -1.3708,-0.517886 -2.007545,-0.124217 -0.679198,0.419916 -0.962262,1.389924 -0.623363,2.136147 0.154062,0.339229 0.602772,0.749414 0.974142,0.890507 0.333032,0.126526 1.002282,0.07268 1.357009,-0.109183 z m 7.655245,0.03026 c 1.038142,-0.483407 1.317495,-1.798834 0.560357,-2.638618 -0.34957,-0.387729 -0.752415,-0.568925 -1.264861,-0.568925 -1.432595,0 -2.212971,1.656534 -1.301368,2.762466 0.281862,0.341947 0.864197,0.618885 1.301368,0.618885 0.193674,0 0.486262,-0.07219 0.704504,-0.173808 z"
     id="path1660" />
  <path
     style="fill:#ffae79;fill-opacity:1;stroke-width:0.0736092"
     d="m 24.710187,39.239627 c -2.248988,-0.350287 -4.06572,-1.382401 -6.185677,-3.514178 -1.798447,-1.808476 -2.729429,-3.478343 -3.089087,-5.540777 -0.06003,-0.344224 -0.126107,-0.653311 -0.146842,-0.686861 -0.02074,-0.03355 -0.266934,-0.09967 -0.547108,-0.146924 -1.391424,-0.234695 -1.974716,-1.159969 -1.899207,-3.012715 0.01911,-0.468968 0.07306,-0.974618 0.119876,-1.12367 0.22139,-0.704812 0.905802,-1.316009 1.596795,-1.425982 l 0.30126,-0.04794 0.04752,0.725247 c 0.06293,0.960367 0.227995,1.701498 0.425871,1.912126 0.444491,0.47314 1.900374,0.319284 2.010699,-0.212489 0.01879,-0.09058 0.0493,-0.744363 0.0678,-1.452851 0.03837,-1.469891 0.196877,-2.505486 0.594666,-3.885357 0.340565,-1.181366 0.528553,-1.60501 0.797046,-1.796194 0.279691,-0.199157 0.518052,-0.199172 2.041901,-1.31e-4 4.126617,0.539008 8.889913,0.560739 11.089617,0.05059 1.199489,-0.27818 1.460649,-0.101001 1.898706,1.288145 0.463018,1.468305 0.69831,2.899055 0.765398,4.654186 l 0.04801,1.255971 0.204778,0.152638 c 0.304472,0.226947 1.101092,0.258166 1.547611,0.06065 0.282181,-0.124822 0.34875,-0.194398 0.412382,-0.431008 0.122067,-0.453903 0.224498,-1.273793 0.22607,-1.80955 0.0017,-0.566865 0.02358,-0.580712 0.605441,-0.382452 0.469941,0.160123 0.896889,0.552265 1.13975,1.046831 0.201425,0.410184 0.206912,0.453565 0.206912,1.635909 0,1.119172 -0.01366,1.244768 -0.173959,1.599311 -0.321428,0.71093 -0.767497,1.00711 -1.879718,1.24809 -0.15788,0.03421 -0.312548,0.111424 -0.343705,0.171593 -0.03116,0.06017 -0.110699,0.405504 -0.176759,0.767413 -0.3588,1.965691 -1.330785,3.688826 -3.055991,5.417653 -1.399525,1.402464 -2.780513,2.384324 -4.104391,2.918155 -1.089372,0.43927 -1.680111,0.549937 -3.07348,0.575769 -0.688247,0.01276 -1.35073,0.0077 -1.472185,-0.01119 z m 2.220204,-4.330512 c 1.428941,-0.269422 2.781135,-1.281543 3.398306,-2.543641 0.430111,-0.879567 0.514171,-1.243122 0.377883,-1.634329 -0.06905,-0.198198 -0.197356,-0.369283 -0.357771,-0.477045 l -0.250116,-0.16802 h -4.156695 -4.156694 l -0.29575,0.295749 c -0.295597,0.295598 -0.29573,0.295992 -0.257881,0.76752 0.05515,0.687049 0.508463,1.586853 1.132945,2.248836 1.262124,1.337918 2.794266,1.844944 4.565773,1.51093 z m -4.055106,-7.604857 c 0.586002,-0.300433 0.873133,-0.7898 0.87278,-1.487513 -2.95e-4,-0.559065 -0.174346,-0.955698 -0.573022,-1.305741 -0.530632,-0.465901 -1.370801,-0.517886 -2.007546,-0.124217 -0.679198,0.419916 -0.962262,1.389925 -0.623362,2.136148 0.154062,0.339228 0.602772,0.749414 0.974141,0.890506 0.333033,0.126526 1.002283,0.07268 1.357009,-0.109183 z m 7.655246,0.03026 c 1.038141,-0.483408 1.317495,-1.798835 0.560357,-2.638619 -0.349571,-0.387729 -0.752416,-0.568925 -1.264861,-0.568925 -1.432595,0 -2.212971,1.656534 -1.301369,2.762466 0.281862,0.341947 0.864198,0.618885 1.301369,0.618885 0.193674,0 0.486262,-0.07219 0.704504,-0.173807 z"
     id="path1662" />
  <path
     style="fill:#ffae79;fill-opacity:1;stroke-width:0.0755011"
     d="m 24.970946,39.825097 c -2.299624,-0.36041 -4.157259,-1.422351 -6.324948,-3.615738 -1.838939,-1.860739 -2.790882,-3.578865 -3.158638,-5.700905 -0.06137,-0.354171 -0.128946,-0.672191 -0.150148,-0.706711 -0.0212,-0.03452 -0.272945,-0.102547 -0.559426,-0.151171 -1.422753,-0.241476 -2.019178,-1.193491 -1.941969,-3.099782 0.01954,-0.48252 0.0747,-1.002784 0.122575,-1.156144 0.226376,-0.725181 0.926197,-1.354042 1.632748,-1.467193 l 0.308043,-0.04933 0.04859,0.746206 c 0.06435,0.988122 0.233129,1.750672 0.435459,1.967387 0.4545,0.486814 1.943163,0.328511 2.055971,-0.21863 0.01921,-0.09319 0.05042,-0.765876 0.06932,-1.49484 0.03923,-1.512369 0.201309,-2.577893 0.608054,-3.997642 0.348232,-1.215508 0.540454,-1.651396 0.814991,-1.848104 0.285989,-0.204914 0.529716,-0.204929 2.087875,-1.34e-4 4.219528,0.554583 9.090069,0.576943 11.3393,0.05205 1.226496,-0.286218 1.493537,-0.103919 1.941456,1.325373 0.473444,1.510739 0.714034,2.982838 0.782631,4.788693 l 0.04909,1.292268 0.209389,0.157049 c 0.311328,0.233506 1.125883,0.265627 1.582455,0.0624 0.288534,-0.128428 0.356602,-0.200016 0.421667,-0.443464 0.124816,-0.467021 0.229553,-1.310605 0.23116,-1.861847 0.0017,-0.583247 0.02411,-0.597494 0.619073,-0.393504 0.48052,0.164752 0.917083,0.568226 1.165411,1.077083 0.205961,0.42204 0.211571,0.466673 0.211571,1.683188 0,1.151516 -0.01397,1.280742 -0.177875,1.645532 -0.328666,0.731475 -0.784778,1.036215 -1.922041,1.284159 -0.161435,0.0352 -0.319586,0.114645 -0.351443,0.176552 -0.03186,0.06191 -0.113191,0.417223 -0.180738,0.789591 -0.366879,2.022501 -1.360749,3.795435 -3.124797,5.574224 -1.431036,1.442996 -2.843118,2.453231 -4.196802,3.00249 -1.1139,0.451965 -1.71794,0.56583 -3.142681,0.592409 -0.703742,0.01313 -1.381141,0.0079 -1.505331,-0.01152 z m 2.270192,-4.455662 c 1.461114,-0.277209 2.843753,-1.318581 3.474819,-2.617153 0.439795,-0.904987 0.525747,-1.279049 0.386392,-1.681561 -0.0706,-0.203927 -0.2018,-0.379955 -0.365827,-0.490832 L 30.480775,30.407014 H 26.230491 21.980209 L 21.6778,30.711309 c -0.302253,0.304141 -0.302389,0.304546 -0.263687,0.7897 0.05639,0.706906 0.519911,1.632715 1.158455,2.313829 1.290539,1.376583 2.857178,1.898262 4.66857,1.554597 z m -4.146407,-7.824639 c 0.599196,-0.309115 0.892791,-0.812626 0.892431,-1.530503 -3.01e-4,-0.575221 -0.178271,-0.983317 -0.585924,-1.343475 -0.542579,-0.479366 -1.401664,-0.532855 -2.052746,-0.127809 -0.69449,0.432053 -0.983927,1.430095 -0.637397,2.197884 0.15753,0.34903 0.616343,0.771072 0.996074,0.916242 0.340531,0.130182 1.024849,0.07478 1.387562,-0.112339 z m 7.827606,0.03114 c 1.061514,-0.497379 1.347157,-1.850822 0.572971,-2.714875 -0.35744,-0.398935 -0.769355,-0.585368 -1.293338,-0.585368 -1.46485,0 -2.262797,1.704408 -1.330669,2.842303 0.288208,0.351829 0.883655,0.63677 1.330669,0.63677 0.198035,0 0.49721,-0.07427 0.720367,-0.17883 z"
     id="path1664" />
  <path
     style="fill:#201e1f;fill-opacity:1;stroke-width:0.0753732"
     d="m 16.133056,26.998518 c -0.315309,-0.08169 -0.544652,-0.218273 -0.624236,-0.371772 -0.196705,-0.379392 -0.335624,-1.46838 -0.332537,-2.606739 0.01614,-5.951348 2.577415,-10.302336 6.943053,-11.794578 1.47357,-0.503689 2.012364,-0.577897 4.195867,-0.577897 2.171225,0 2.753241,0.07906 4.191912,0.569386 3.357246,1.144224 5.616441,3.903921 6.545082,7.99508 0.489433,2.156214 0.560821,5.416897 0.139275,6.361508 -0.22782,0.510506 -1.727667,0.556907 -1.985687,0.06143 -0.04002,-0.07685 -0.07561,-0.621936 -0.07909,-1.211303 -0.01,-1.686007 -0.275014,-3.338133 -0.80323,-5.006365 -0.342267,-1.080961 -0.566594,-1.347678 -1.133488,-1.347678 -0.206692,0 -0.587683,0.05004 -0.846648,0.111189 -2.41782,0.570967 -6.895007,0.528776 -11.708506,-0.110337 -1.556339,-0.206643 -1.742178,-0.12974 -2.11444,0.87499 -0.550936,1.486969 -0.902453,3.44629 -0.991416,5.52607 l -0.05322,1.244076 -0.223784,0.13129 c -0.269203,0.157936 -0.811125,0.231382 -1.118917,0.151645 z"
     id="path1666" />
</svg>
