<?xml version="1.0" encoding="UTF-8" standalone="no"?>
<svg
   xmlns:dc="http://purl.org/dc/elements/1.1/"
   xmlns:cc="http://creativecommons.org/ns#"
   xmlns:rdf="http://www.w3.org/1999/02/22-rdf-syntax-ns#"
   xmlns:svg="http://www.w3.org/2000/svg"
   xmlns="http://www.w3.org/2000/svg"
   xmlns:sodipodi="http://sodipodi.sourceforge.net/DTD/sodipodi-0.dtd"
   xmlns:inkscape="http://www.inkscape.org/namespaces/inkscape"
   version="1.1"
   id="svg833"
   width="80.169426"
   height="122.99491"
   viewBox="0 0 80.169424 122.99491"
   sodipodi:docname="Edit_red.svg"
   inkscape:version="1.0.1 (3bc2e813f5, 2020-09-07)">
  <metadata
     id="metadata839">
    <rdf:RDF>
      <cc:Work
         rdf:about="">
        <dc:format>image/svg+xml</dc:format>
        <dc:type
           rdf:resource="http://purl.org/dc/dcmitype/StillImage" />
        <dc:title></dc:title>
      </cc:Work>
    </rdf:RDF>
  </metadata>
  <defs
     id="defs837" />
  <sodipodi:namedview
     pagecolor="#ffffff"
     bordercolor="#666666"
     borderopacity="1"
     objecttolerance="10"
     gridtolerance="10"
     guidetolerance="10"
     inkscape:pageopacity="0"
     inkscape:pageshadow="2"
     inkscape:window-width="1920"
     inkscape:window-height="1017"
     id="namedview835"
     showgrid="false"
     showborder="false"
     fit-margin-top="0"
     fit-margin-left="0"
     fit-margin-right="0"
     fit-margin-bottom="0"
     inkscape:zoom="4.789295"
     inkscape:cx="42.720649"
     inkscape:cy="68.707169"
     inkscape:window-x="-8"
     inkscape:window-y="-8"
     inkscape:window-maximized="1"
     inkscape:current-layer="g841" />
  <g
     inkscape:groupmode="layer"
     inkscape:label="Image"
     id="g841"
     transform="translate(-153.8038,-17.631217)">
    <path
       style="fill:#ff5e5b;stroke-width:0.208799"
       d="m 154.84104,133.81161 c -0.39598,-0.1665 -0.79203,-0.4161 -0.8801,-0.55468 -0.25642,-0.40345 -0.19158,-4.14638 0.14014,-8.09001 0.4418,-5.2521 0.90776,-12.35413 1.15181,-17.55552 l 0.21178,-4.51366 4.46016,-9.371471 c 2.45309,-5.154309 5.70497,-12.04932 7.22639,-15.322244 1.52143,-3.272925 5.28227,-11.306466 8.35743,-17.852315 7.44238,-15.842029 16.00698,-34.126852 17.79982,-38.001418 1.50157,-3.245078 1.83302,-3.676377 3.45184,-4.491804 1.14164,-0.575065 2.33177,-0.569888 3.90947,0.01701 1.60675,0.597703 11.08638,5.014614 12.75849,5.944656 1.54635,0.860097 2.66655,2.057455 3.37729,3.609915 l 0.53231,1.162709 -0.37299,1.054739 c -0.20514,0.580106 -2.62793,5.846676 -5.38396,11.703488 -2.75604,5.856812 -5.83319,12.43398 -6.83813,14.61593 -1.00493,2.18195 -3.91833,8.38328 -6.47422,13.780734 -2.55589,5.397454 -5.23636,11.128987 -5.95661,12.736739 -0.72024,1.607752 -2.73198,5.92164 -4.47053,9.586415 -1.73855,3.664776 -4.57535,9.694247 -6.304,13.398827 -3.12155,6.68964 -3.15462,6.74853 -4.84646,8.63138 -0.93691,1.04269 -4.5563,4.59709 -8.04309,7.89867 -13.99278,13.24952 -12.63265,12.10562 -13.80684,11.61191 z m 11.41473,-11.77327 c 2.49699,-2.35164 5.73519,-5.38897 7.196,-6.74963 1.46082,-1.36065 2.80628,-2.79054 2.98991,-3.17752 0.18364,-0.38698 0.49337,-0.79285 0.6883,-0.90194 0.33268,-0.18618 0.33227,-0.22281 -0.007,-0.5973 -0.19858,-0.21943 -0.36105,-0.65613 -0.36105,-0.97044 0,-0.61276 -0.33586,-1.38731 -0.70985,-1.63703 -0.39422,-0.26322 -2.20635,-0.17413 -2.81025,0.13816 -0.59668,0.30855 -1.23763,0.13657 -0.98919,-0.26542 0.21187,-0.3428 -0.40838,-1.63267 -0.95424,-1.98444 -0.88709,-0.57167 -1.89701,-0.63227 -2.50938,-0.15058 -0.30212,0.23765 -0.73395,0.43209 -0.95962,0.43209 -0.34175,0 -0.42768,-0.18092 -0.51435,-1.08292 -0.13585,-1.41382 -0.63092,-1.84026 -2.13644,-1.84026 -0.78094,0 -1.25009,0.12034 -1.62799,0.41759 -0.71268,0.5606 -0.77822,0.53504 -0.77822,-0.30337 0,-1.47765 -0.88914,-2.41101 -2.29679,-2.41101 -0.83484,0 -1.59993,0.40881 -2.48117,1.32578 l -0.70638,0.73502 -0.28073,5.80777 c -0.29898,6.18557 -0.63714,11.83074 -0.84211,14.05797 l -0.12515,1.35983 2.26997,1.07653 c 2.62317,1.24403 2.80857,1.31056 3.15088,1.13062 0.13998,-0.0736 2.29751,-2.05786 4.79449,-4.4095 z m 46.13951,-87.116707 c 0.57839,-0.648885 1.08668,-1.577454 2.23594,-4.084636 l 0.98641,-2.151944 -0.43152,-0.698214 c -1.03316,-1.671692 -2.02957,-2.281671 -9.29496,-5.690172 -5.88027,-2.758679 -8.10408,-3.336442 -9.08116,-2.359357 -0.58708,0.587082 -3.13498,5.74209 -3.13498,6.342816 0,0.638866 0.14194,0.742624 2.40119,1.755233 1.03355,0.463246 4.08724,1.899781 6.78597,3.1923 4.91011,2.351633 8.76821,4.133144 8.99416,4.153136 0.0661,0.0059 0.30864,-0.200773 0.53895,-0.459162 z"
       id="path845" />
    <path
       style="fill:#ff5e5b;stroke-width:0.208799"
       d="m 160.26717,138.95573 v -1.67039 h 36.85302 36.85303 v 1.67039 1.6704 h -36.85303 -36.85302 z"
       id="path847" />
  </g>
</svg>
